HIERARCHY
ROOT pelvis
{
  OFFSET 6.95732 88.3543 -185.248
  CHANNELS 6 Xposition Yposition Zposition Zrotation Xrotation Yrotation
  JOINT lfemur
  {
    OFFSET 0 11.9945 0
    CHANNELS 3 Zrotation Xrotation Yrotation
    JOINT ltibia
    {
      OFFSET 0 0 -41.4872
      CHANNELS 3 Zrotation Xrotation Yrotation
      JOINT lfoot
      {
        OFFSET 0 0 -39.7538
        CHANNELS 3 Zrotation Xrotation Yrotation
        JOINT ltoes
        {
          OFFSET 15.4382 0 0
          CHANNELS 3 Zrotation Xrotation Yrotation
          End Site
          {
            OFFSET 0 0 0
          }
        }
      }
    }
  }
  JOINT rfemur
  {
    OFFSET 0 -11.9945 0
    CHANNELS 3 Zrotation Xrotation Yrotation
    JOINT rtibia
    {
      OFFSET 0 0 -41.4872
      CHANNELS 3 Zrotation Xrotation Yrotation
      JOINT rfoot
      {
        OFFSET 0 0 -39.7538
        CHANNELS 3 Zrotation Xrotation Yrotation
        JOINT rtoes
        {
          OFFSET 15.4382 0 0
          CHANNELS 3 Zrotation Xrotation Yrotation
          End Site
          {
            OFFSET 0 0 0
          }
        }
      }
    }
  }
  JOINT thorax
  {
    OFFSET 3.92645 -1.36083 10.8296
    CHANNELS 3 Zrotation Xrotation Yrotation
    JOINT head
    {
      OFFSET 1.55085 -1.29163 47.2123
      CHANNELS 3 Zrotation Xrotation Yrotation
      End Site
      {
        OFFSET 0 0 0
      }
    }
    JOINT lclavicle
    {
      OFFSET 0 0 42.6193
      CHANNELS 3 Zrotation Xrotation Yrotation
      JOINT lhumerus
      {
        OFFSET 0 19.157 -2.10407
        CHANNELS 3 Zrotation Xrotation Yrotation
        JOINT lradius
        {
          OFFSET 0 0 -26.2788
          CHANNELS 3 Zrotation Xrotation Yrotation
          JOINT lhand
          {
            OFFSET 0 0 -26.6372
            CHANNELS 3 Zrotation Xrotation Yrotation
            End Site
            {
              OFFSET 0 0 0
            }
          }
        }
      }
    }
    JOINT rclavicle
    {
      OFFSET 0 0 42.6193
      CHANNELS 3 Zrotation Xrotation Yrotation
      JOINT rhumerus
      {
        OFFSET 0 -19.157 -2.10407
        CHANNELS 3 Zrotation Xrotation Yrotation
        JOINT rradius
        {
          OFFSET 0 0 -26.2788
          CHANNELS 3 Zrotation Xrotation Yrotation
          JOINT rhand
          {
            OFFSET 0 0 -26.6372
            CHANNELS 3 Zrotation Xrotation Yrotation
            End Site
            {
              OFFSET 0 0 0
            }
          }
        }
      }
    }
  }
}
MOTION
Frames:	7
Frame Time:	0.0333333
12.1076 88.0454 -187.601 -91.5169 -1.49605 -84.1997 1.3493 -2.29693 -0.689515 -1.87677e-016 2.28602e-015 -5.28815 -3.54927 -1.07207 16.8037 -7.1729e-015 8.87077e-015 -31.2538 -5.9075 -0.311352 -12.7487 -1.65266e-015 -9.93923e-017 19.5959 0.267459 0.038736 7.48469 1.01329e-015 1.39149e-015 -8.55035 -9.49952 -0.299248 -9.48706 14.7787 1.02123 11.6504 12.1076 1.80365 -0.386637 -30.8026 0.973804 26.7477 -0.397375 2.86858 -82.2937 0.000552933 -9.69578 -8.03426 3.86031 -1.59228 0.107026 25.5546 6.00726 24.1559 44.8087 71.9819 -136.548 9.7072 -27.0074 -21.6511 
12.1678 88.0527 -187.613 -91.5163 -1.52332 -84.0914 0.754317 -2.30838 -0.51607 -1.88494e-015 1.09332e-015 -5.93268 -3.0326 -0.941546 17.2247 -6.58489e-015 8.49804e-015 -31.2584 -4.70853 -0.153408 -14.4792 1.41241e-016 6.95746e-016 22.5807 -0.588309 -0.0708667 6.63061 -7.17217e-016 1.19271e-015 -3.82271 -8.75162 -0.39565 -9.09461 13.9084 -0.0757943 9.96039 11.6367 1.94692 -0.400783 -31.4721 2.19157 25.7485 -0.788252 5.00709 -81.0819 -0.00089793 -9.42656 -7.59753 4.05097 -1.12088 0.0793392 24.3655 3.84765 26.9284 -0.441968 10.4007 -93.8945 -0.0222775 7.0061 29.7629 
12.041 88.0867 -187.526 -91.6248 -1.53552 -84.1191 1.90628 -2.13496 -0.246958 -2.32345e-015 6.95746e-016 -6.25424 -4.26346 -1.34247 17.427 -7.16036e-015 8.69683e-015 -31.278 -3.10331 0.472935 -15.514 -6.76803e-016 4.96962e-017 24.3064 0.782561 0.0572279 5.11684 -1.4763e-015 7.95139e-016 -1.06962 -8.51273 -0.424743 -8.90091 13.3078 -0.00733925 10.9818 11.3419 2.26392 -0.45329 -31.6438 3.5994 25.5683 -1.02273 5.90775 -80.1931 -0.00109705 -9.188 -8.56715 4.23673 -1.42224 0.103578 19.9462 1.78435 24.0219 -2.87016 34.853 -87.301 -0.336072 -6.87702 32.6316 
11.8517 88.1285 -187.353 -91.7508 -2.31526 -84.151 1.66109 -1.87357 -0.29593 -3.82231e-015 1.63997e-015 -6.13556 -4.84184 -1.52831 17.476 -7.08491e-015 7.47927e-015 -31.2967 -2.14174 1.22592 -15.8643 -6.58199e-016 2.15868e-016 24.5038 2.37031 0.168947 4.28284 -1.14624e-015 1.39149e-015 -1.94092 -9.20337 -0.384856 -8.57218 13.266 -0.2208 10.6528 11.1175 2.70963 -0.531522 -31.5903 4.87831 25.7404 -1.04963 5.98951 -80.0455 0.00289641 -8.68303 -8.32377 3.87377 -1.85187 0.122679 24.5068 3.00262 23.6605 -1.01688 14.704 -88.795 -0.0455069 -2.2916 34.7119 
11.8288 88.1618 -187.159 -91.8474 -3.51179 -84.1517 -0.0902581 -1.5545 -0.58048 -2.68298e-015 1.14301e-015 -5.68329 -4.1772 -1.30671 17.266 -6.80318e-015 8.32411e-015 -31.3071 -1.92382 2.08895 -15.7822 -7.59421e-016 2.48481e-016 23.6078 3.60217 0.257184 4.06959 -1.53975e-015 7.95139e-016 -3.9007 -9.96562 -0.367988 -8.4774 13.0906 -0.119085 10.5514 10.734 3.20267 -0.604856 -31.615 5.84352 26.0519 -1.06969 6.10511 -80.0441 0.00107268 -8.4814 -8.25093 3.81044 -1.81866 0.119516 27.648 3.69143 23.8489 0.221335 -4.27947 -88.6736 -1.55164 -5.56077 41.6372 
11.5739 88.1737 -186.935 -91.8792 -4.60966 -84.1589 -1.57274 -1.26968 -0.961689 -1.37977e-015 2.5345e-015 -4.8776 -3.57199 -1.06134 16.697 -6.86039e-015 8.99501e-015 -31.3082 -1.94966 2.97195 -15.3628 -5.27835e-016 2.48481e-016 21.8322 4.49874 0.384524 4.73839 7.73487e-017 7.95139e-016 -5.55608 -10.4093 -0.408996 -8.58658 12.7823 0.34873 10.9716 10.2199 3.57416 -0.643717 -31.3922 6.65153 26.5181 -1.05065 6.06626 -80.1863 -5.37788e-005 -8.53559 -8.68707 4.23007 -1.40635 0.10371 26.7212 2.91939 23.7143 0.509345 -5.1562 -84.719 -0.603154 -15.6594 52.0776 
11.2072 88.1645 -186.615 -91.8222 -4.92853 -84.2866 0.867853 -1.1727 -1.24429 -3.06265e-015 1.98785e-015 -3.57224 -6.25435 -1.76166 15.6712 -6.28342e-015 9.75287e-015 -31.3053 -1.12284 3.71167 -14.5427 -1.36639e-015 2.98177e-016 19.1697 5.66091 0.681513 6.87103 1.8561e-016 1.59028e-015 -6.6572 -10.6132 -0.485398 -8.47079 13.0409 0.688457 10.9218 9.86195 3.56778 -0.61956 -30.0031 7.78237 27.3986 -0.733151 4.68585 -81.1002 0.000355851 -8.17848 -8.93066 4.65047 -1.37357 0.111607 26.8939 2.67156 23.5484 0.631385 -5.27119 -83.7373 -1.57626 -18.0885 51.005 
